<svg xmlns="http://www.w3.org/2000/svg" width="403.906" height="320.65" viewBox="0 0 403.906 320.65">
  <g id="Group_1" data-name="Group 1" transform="translate(-195.094 -302.663)">
    <path id="Path_1" data-name="Path 1" d="M265.722,454.259s-.3-88.321-.127-91.879,5.895-23.862,24.67-42.28,46.922-17.425,46.922-17.425v70.284S360,340.142,391.876,322.571s72.823-19.9,72.823-19.9v70.284s-26.478,2.42-52.523,21.736-30.709,59.564-30.709,59.564H265.722Z" fill="#ed076c"/>
    <path id="Path_2" data-name="Path 2" d="M474.494,302.665v71.349s7.755-.6,23.32,3.659,19.877,11.478,38.941,13.382,22.973-.338,37.18-6.811S597.683,365.3,597.683,365.3s-26.032-31.878-56.829-47.538S474.494,302.665,474.494,302.665Z" fill="#54eeff"/>
    <path id="Path_3" data-name="Path 3" d="M195.094,552.9h71V463.073h113.5s-2.226,39.351,35.052,69.373S503.3,546.392,503.3,546.392s-5.706,20,0,36.254,22.826,28.762,22.826,28.762-40.082,16.75-74.894,10.515-37.2-5.787-65.565-23.043S337.781,552.9,337.781,552.9s-.679,31.919-19.83,49.08-26.07,20.476-51.672,20.978-40.933-10.09-51.231-20.053-14.641-21.907-16.818-29.076S195.094,552.9,195.094,552.9Z" fill="#ab0660"/>
    <ellipse id="Ellipse_1" data-name="Ellipse 1" cx="41" cy="40.5" rx="41" ry="40.5" transform="translate(517 525)" fill="#fdd401"/>
  </g>
</svg>
